<svg width="121" height="41" viewBox="0 0 121 41" fill="none" xmlns="http://www.w3.org/2000/svg">
<path d="M9.12109 8.49219C9.16797 8.5625 9.19141 8.63281 9.19141 8.70312C9.19141 8.77344 9.22656 8.83203 9.29688 8.87891C9.25 9.08984 9.20312 9.3125 9.15625 9.54688C9.13281 9.75781 9.12109 9.96875 9.12109 10.1797C9.12109 10.2734 9.14453 10.3555 9.19141 10.4258C9.26172 10.4961 9.29688 10.5664 9.29688 10.6367C9.17969 10.918 9.08594 11.082 9.01562 11.1289C8.96875 11.1758 8.94531 11.2344 8.94531 11.3047C8.82812 11.3516 8.73438 11.4219 8.66406 11.5156C8.61719 11.6094 8.52344 11.6562 8.38281 11.6562C8.33594 11.7266 8.27734 11.7852 8.20703 11.832C8.16016 11.8555 8.125 11.9141 8.10156 12.0078C7.72656 12.1719 7.30469 12.1602 6.83594 11.9727C6.71875 11.7617 6.55469 11.6094 6.34375 11.5156C6.03906 11.0703 6.02734 10.543 6.30859 9.93359C6.35547 9.81641 6.40234 9.69922 6.44922 9.58203C6.51953 9.44141 6.57812 9.34766 6.625 9.30078C6.88281 9.11328 7.07031 8.99609 7.1875 8.94922C7.28125 8.90234 7.375 8.84375 7.46875 8.77344C7.58594 8.70312 7.71484 8.64453 7.85547 8.59766C7.90234 8.57422 7.96094 8.5625 8.03125 8.5625C8.125 8.5625 8.21875 8.53906 8.3125 8.49219C8.40625 8.46875 8.48828 8.44531 8.55859 8.42188C8.62891 8.39844 8.69922 8.38672 8.76953 8.38672L9.12109 8.49219ZM3.67188 24.0312C3.88281 23.9375 4.14062 23.9023 4.44531 23.9258C4.75 23.9492 4.99609 23.9023 5.18359 23.7852C5.27734 23.7148 5.35938 23.6445 5.42969 23.5742C5.5 23.5039 5.58203 23.4805 5.67578 23.5039C6.05078 23.3633 6.36719 23.2227 6.625 23.082C6.88281 22.9414 7.16406 22.8359 7.46875 22.7656C7.53906 22.7422 7.62109 22.6953 7.71484 22.625C7.83203 22.5547 7.91406 22.4961 7.96094 22.4492C8.33594 22.332 8.60547 22.2148 8.76953 22.0977C8.93359 21.9805 9.08594 21.8633 9.22656 21.7461C9.39062 21.6289 9.54297 21.5117 9.68359 21.3945C9.84766 21.2539 10.0469 21.0898 10.2812 20.9023C10.6094 20.7148 10.8789 20.5508 11.0898 20.4102C11.3242 20.2695 11.5703 20.0938 11.8281 19.8828C11.875 19.7656 11.9336 19.6836 12.0039 19.6367C12.0977 19.5664 12.168 19.4844 12.2148 19.3906C12.6367 19.3906 12.8711 19.5547 12.918 19.8828C12.8008 20.1406 12.6367 20.3516 12.4258 20.5156C12.2383 20.6797 12.0625 20.8672 11.8984 21.0781C11.7109 21.1953 11.5586 21.3008 11.4414 21.3945C11.3242 21.4883 11.207 21.6289 11.0898 21.8164C11.0664 21.8164 10.9961 21.875 10.8789 21.9922C10.7617 22.0859 10.6914 22.1328 10.668 22.1328C10.5273 22.2969 10.4219 22.4023 10.3516 22.4492C10.3047 22.4961 10.2578 22.5312 10.2109 22.5547C10.1875 22.5547 10.1406 22.5781 10.0703 22.625C10.0234 22.6719 9.91797 22.7656 9.75391 22.9062C9.58984 23.1641 9.37891 23.375 9.12109 23.5391C8.62891 24.0078 8.08984 24.418 7.50391 24.7695C6.94141 25.0977 6.42578 25.4258 5.95703 25.7539C5.86328 25.8008 5.78125 25.8711 5.71094 25.9648C5.64062 26.0352 5.55859 26.1055 5.46484 26.1758C5.34766 26.2695 5.16016 26.3633 4.90234 26.457C4.66797 26.5508 4.45703 26.6328 4.26953 26.7031C4.12891 26.7969 4 26.8672 3.88281 26.9141C3.36719 26.9375 2.96875 26.8555 2.6875 26.668C2.38281 26.5039 2.14844 26.375 1.98438 26.2812C1.82031 26.1875 1.67969 26.0352 1.5625 25.8242C1.30469 25.707 1.14062 25.4961 1.07031 25.1914C1.02344 24.8633 0.964844 24.5469 0.894531 24.2422C0.871094 24.125 0.847656 23.9961 0.824219 23.8555C0.800781 23.6914 0.800781 23.5273 0.824219 23.3633C0.871094 23.1055 0.90625 22.8359 0.929688 22.5547C0.953125 22.25 1.01172 21.9922 1.10547 21.7812C1.22266 21.5234 1.28125 21.2656 1.28125 21.0078C1.30469 20.75 1.375 20.4922 1.49219 20.2344C1.63281 20 1.69141 19.8711 1.66797 19.8477C1.66797 19.8242 1.67969 19.7891 1.70312 19.7422C1.75 19.6719 1.79688 19.6016 1.84375 19.5312C1.91406 19.4609 1.97266 19.3789 2.01953 19.2852L2.23047 18.7578C2.32422 18.5938 2.42969 18.4297 2.54688 18.2656C2.66406 18.1016 2.75781 17.9023 2.82812 17.668C2.875 17.5273 2.93359 17.3984 3.00391 17.2812C3.09766 17.1641 3.19141 17.0352 3.28516 16.8945C3.35547 16.7539 3.41406 16.6133 3.46094 16.4727C3.50781 16.3086 3.56641 16.1445 3.63672 15.9805C3.70703 15.793 3.78906 15.6055 3.88281 15.418C4 15.2305 4.11719 15.043 4.23438 14.8555C4.32812 14.668 4.41016 14.5273 4.48047 14.4336C4.55078 14.3398 4.69141 14.2812 4.90234 14.2578C4.99609 14.2344 5.10156 14.2461 5.21875 14.293C5.33594 14.3164 5.45312 14.3047 5.57031 14.2578C5.875 14.1172 6.08594 14.0469 6.20312 14.0469C6.32031 14.0469 6.40234 14.0117 6.44922 13.9414C6.70703 13.9648 6.89453 14.0469 7.01172 14.1875C7.12891 14.3281 7.26953 14.4688 7.43359 14.6094C7.29297 15.2891 7.12891 15.8164 6.94141 16.1914C6.77734 16.543 6.58984 16.918 6.37891 17.3164C6.26172 17.5039 6.14453 17.7148 6.02734 17.9492C5.91016 18.1836 5.80469 18.3945 5.71094 18.582C5.59375 18.8398 5.46484 19.0742 5.32422 19.2852C5.20703 19.4727 5.10156 19.6953 5.00781 19.9531C4.96094 20.0703 4.90234 20.1875 4.83203 20.3047C4.78516 20.3984 4.73828 20.5039 4.69141 20.6211C4.64453 20.7852 4.57422 20.9375 4.48047 21.0781C4.41016 21.1953 4.33984 21.3125 4.26953 21.4297C4.19922 21.5703 4.12891 21.7109 4.05859 21.8516C3.98828 21.9922 3.92969 22.1445 3.88281 22.3086C3.76562 22.5898 3.69531 22.7656 3.67188 22.8359C3.64844 22.8828 3.625 22.9297 3.60156 22.9766C3.55469 23.2344 3.48438 23.4453 3.39062 23.6094C3.29688 23.7734 3.33203 23.8906 3.49609 23.9609L3.67188 24.0312ZM13.1992 21.6758C13.3867 21.5586 13.5391 21.4062 13.6562 21.2188C13.7734 21.0312 13.9141 20.8438 14.0781 20.6562C14.3828 20.3047 14.7109 20.0117 15.0625 19.7773C15.2266 19.543 15.4258 19.3672 15.6602 19.25C15.918 19.1094 16.1172 18.9102 16.2578 18.6523C16.3047 18.582 16.3398 18.5117 16.3633 18.4414C16.4102 18.3711 16.457 18.3008 16.5039 18.2305C16.9258 17.6445 17.4062 17.1289 17.9453 16.6836C18.0859 16.5664 18.2148 16.4492 18.332 16.332C18.4727 16.2148 18.6367 16.0977 18.8242 15.9805C19.0352 15.8633 19.2344 15.7109 19.4219 15.5234C19.6328 15.3359 19.8555 15.1953 20.0898 15.1016C20.2539 15.0312 20.4062 14.9844 20.5469 14.9609C20.6875 14.9141 20.8398 14.8672 21.0039 14.8203C21.168 14.7734 21.3086 14.7383 21.4258 14.7148C21.5664 14.668 21.7188 14.668 21.8828 14.7148C22.2578 14.8789 22.5391 15.1953 22.7266 15.6641C22.7734 15.7812 22.75 16.0391 22.6562 16.4375C22.5859 16.8125 22.4805 17.2344 22.3398 17.7031C22.2227 18.1484 22.0938 18.582 21.9531 19.0039C21.8125 19.4258 21.7188 19.7305 21.6719 19.918C21.625 20.1055 21.6133 20.2109 21.6367 20.2344C21.6602 20.2344 21.6719 20.2578 21.6719 20.3047C21.625 20.4219 21.5898 20.5273 21.5664 20.6211C21.543 20.7148 21.5195 20.8203 21.4961 20.9375C21.4492 21.125 21.4141 21.3828 21.3906 21.7109C21.3672 22.0156 21.3789 22.2617 21.4258 22.4492C21.6836 22.4258 21.8125 22.4023 21.8125 22.3789C21.8359 22.3555 21.8711 22.3438 21.918 22.3438C21.9883 22.3203 22.0586 22.3203 22.1289 22.3438C22.2227 22.3438 22.3047 22.332 22.375 22.3086C22.6328 22.2383 22.8672 22.1445 23.0781 22.0273C23.2891 21.8867 23.4883 21.7227 23.6758 21.5352C24.0977 21.3477 24.4844 21.1602 24.8359 20.9727C25.1641 20.7383 25.4219 20.5742 25.6094 20.4805C25.8203 20.3633 26.125 20.2109 26.5234 20.0234C26.6641 19.8594 26.8633 19.7188 27.1211 19.6016C27.4023 19.4609 27.6367 19.3086 27.8242 19.1445C27.8711 19.0977 27.9297 19.0391 28 18.9688C28.0703 18.875 28.1406 18.8516 28.2109 18.8984C28.3281 19.0156 28.3984 19.1445 28.4219 19.2852C28.4688 19.4023 28.4805 19.4844 28.457 19.5312C28.2695 19.7188 28.1641 19.8594 28.1406 19.9531C28.1406 20.0469 28.1172 20.1172 28.0703 20.1641C27.9531 20.2812 27.7773 20.3867 27.543 20.4805C27.332 20.5742 27.2031 20.6562 27.1562 20.7266C27.1328 20.7734 27.0977 20.8203 27.0508 20.8672C27.0039 20.9141 26.9336 20.9727 26.8398 21.043C26.7695 21.0898 26.7109 21.1367 26.6641 21.1836C26.6172 21.2539 26.5469 21.3008 26.4531 21.3242C26.3828 21.3242 26.3125 21.3359 26.2422 21.3594C26.1016 21.4766 25.9844 21.582 25.8906 21.6758C25.7969 21.7695 25.6914 21.875 25.5742 21.9922C25.3867 22.1797 25.2695 22.3203 25.2227 22.4141C25.1758 22.4844 25.0469 22.5898 24.8359 22.7305C24.7188 22.8008 24.6016 22.8711 24.4844 22.9414C24.3672 23.0117 24.25 23.082 24.1328 23.1523C23.8047 23.3164 23.4766 23.5156 23.1484 23.75C22.8203 23.9844 22.4922 24.2188 22.1641 24.4531C21.9297 24.5938 21.6836 24.7227 21.4258 24.8398C21.1914 24.9336 20.9688 25.0508 20.7578 25.1914C20.6641 25.1914 20.5938 25.1914 20.5469 25.1914C20.5234 25.168 20.4648 25.1797 20.3711 25.2266C20.2539 25.1562 20.1367 25.1562 20.0195 25.2266C19.9023 25.2734 19.7852 25.2734 19.668 25.2266C19.4336 25.0391 19.2695 24.9219 19.1758 24.875C19.1055 24.8281 19.0469 24.7695 19 24.6992C18.9531 24.582 18.9297 24.4531 18.9297 24.3125C18.9531 24.1719 18.9297 24.0547 18.8594 23.9609C18.8594 23.4453 18.8711 22.9531 18.8945 22.4844C18.9414 22.0156 19.0234 21.5234 19.1406 21.0078C19.1641 20.8438 19.2109 20.6211 19.2812 20.3398C19.3516 20.0352 19.4102 19.7422 19.457 19.4609C19.5039 19.1797 19.5391 18.9336 19.5625 18.7227C19.5859 18.5117 19.5625 18.3828 19.4922 18.3359C19.2344 18.4766 18.9648 18.6875 18.6836 18.9688C18.4258 19.25 18.1797 19.4844 17.9453 19.6719C17.7578 19.8125 17.5703 19.9414 17.3828 20.0586C17.2188 20.1758 17.043 20.3047 16.8555 20.4453C16.6914 20.5625 16.5508 20.6797 16.4336 20.7969C16.3164 20.9141 16.1875 21.0547 16.0469 21.2188C15.8828 21.3828 15.7305 21.5469 15.5898 21.7109C15.4492 21.8516 15.2852 21.9922 15.0977 22.1328C15.0039 22.2266 14.9102 22.3086 14.8164 22.3789C14.7461 22.4258 14.6758 22.4844 14.6055 22.5547C14.4883 22.6719 14.3711 22.7891 14.2539 22.9062C14.1602 23 14.0312 23.082 13.8672 23.1523C13.7266 23.3398 13.5391 23.5508 13.3047 23.7852C13.0938 24.0195 12.8711 24.2773 12.6367 24.5586C12.4258 24.8164 12.2148 25.0742 12.0039 25.332C11.793 25.5898 11.6289 25.8242 11.5117 26.0352C11.2305 26.2695 10.9258 26.4688 10.5977 26.6328C10.293 26.8203 9.91797 26.8438 9.47266 26.7031C9.23828 26.5625 9.08594 26.4453 9.01562 26.3516C8.94531 26.2578 8.86328 26.1875 8.76953 26.1406C8.79297 25.8828 8.81641 25.6367 8.83984 25.4023C8.86328 25.168 8.93359 24.9219 9.05078 24.6641C9.07422 24.6172 9.10938 24.5703 9.15625 24.5234C9.17969 24.4531 9.21484 24.3828 9.26172 24.3125C9.37891 24.1016 9.46094 23.8672 9.50781 23.6094C9.53125 23.3516 9.60156 23.1055 9.71875 22.8711C9.85938 22.6367 9.95312 22.4492 10 22.3086C10.0234 22.1445 10.0703 22.0039 10.1406 21.8867C10.1875 21.7695 10.2578 21.6641 10.3516 21.5703C10.4219 21.4531 10.4805 21.3359 10.5273 21.2188C10.5742 21.1016 10.6562 20.9727 10.7734 20.832C10.8906 20.668 10.9727 20.5273 11.0195 20.4102C11.0898 20.1523 11.1719 19.8945 11.2656 19.6367C11.3594 19.3789 11.4648 19.1211 11.582 18.8633C11.6289 18.6992 11.6758 18.5469 11.7227 18.4062C11.7695 18.2422 11.8281 18.0898 11.8984 17.9492C12.0156 17.6914 12.1328 17.4453 12.25 17.2109C12.3672 16.9531 12.4844 16.6953 12.6016 16.4375C12.6719 16.2969 12.7305 16.1797 12.7773 16.0859C12.8477 15.9688 12.9297 15.8516 13.0234 15.7344C13.0938 15.6172 13.1523 15.5 13.1992 15.3828C13.2695 15.2656 13.3398 15.1484 13.4102 15.0312C13.4805 14.9141 13.5391 14.7852 13.5859 14.6445C13.6562 14.4805 13.75 14.3281 13.8672 14.1875C14.0312 14 14.1602 13.8242 14.2539 13.6602C14.3477 13.4961 14.5 13.3906 14.7109 13.3438C14.8047 13.3906 14.8984 13.3906 14.9922 13.3438C15.1094 13.2969 15.2148 13.2617 15.3086 13.2383C15.4258 13.1914 15.5312 13.168 15.625 13.168C15.7188 13.1445 15.8008 13.1797 15.8711 13.2734C16.1758 13.4609 16.3984 13.625 16.5391 13.7656C16.6797 13.9062 16.7734 14.0352 16.8203 14.1523C16.9375 14.3633 16.9492 14.5859 16.8555 14.8203C16.7617 15.0312 16.5977 15.2188 16.3633 15.3828C16.2695 15.7812 16.1055 16.1562 15.8711 16.5078C15.6367 16.8594 15.4258 17.1992 15.2383 17.5273C15.1914 17.6445 15.1445 17.7617 15.0977 17.8789C15.0508 17.9961 15.0039 18.1133 14.957 18.2305C14.8164 18.5586 14.6641 18.8867 14.5 19.2148C14.3594 19.543 14.1953 19.8594 14.0078 20.1641C13.9141 20.3516 13.832 20.5039 13.7617 20.6211C13.6914 20.7383 13.6211 20.8438 13.5508 20.9375C13.4805 21.0078 13.4219 21.1016 13.375 21.2188C13.3281 21.3359 13.2695 21.4883 13.1992 21.6758ZM35.9805 17.2109C36.0273 17.2578 36.0859 17.2227 36.1562 17.1055C36.25 16.9648 36.3203 16.8594 36.3672 16.7891C36.4141 16.6719 36.4492 16.5547 36.4727 16.4375C36.5195 16.3203 36.5664 16.2031 36.6133 16.0859C36.7539 15.8281 36.9297 15.5586 37.1406 15.2773C37.375 14.9961 37.5508 14.7266 37.668 14.4688C37.7148 14.4219 37.7617 14.3867 37.8086 14.3633C37.8789 14.3164 37.9375 14.2578 37.9844 14.1875C38.1719 14.1641 38.3008 14.1406 38.3711 14.1172C38.4414 14.0938 38.5117 14.0586 38.582 14.0117C38.8398 14.082 39.0039 14.2812 39.0742 14.6094C39.0508 14.7969 38.9688 14.9492 38.8281 15.0664C38.7109 15.1602 38.6289 15.2891 38.582 15.4531C38.5352 15.5469 38.5117 15.6406 38.5117 15.7344C38.5352 15.8281 38.5234 15.9219 38.4766 16.0156C38.3594 16.4141 38.1953 16.7891 37.9844 17.1406C37.7969 17.4922 37.6328 17.8672 37.4922 18.2656C37.375 18.5 37.2578 18.7344 37.1406 18.9688C37.0469 19.2031 36.9648 19.4492 36.8945 19.707C36.6367 20.1758 36.3906 20.668 36.1562 21.1836C35.9219 21.6992 35.6758 22.2266 35.418 22.7656C35.6289 22.7188 35.8164 22.6367 35.9805 22.5195C36.1445 22.3789 36.3203 22.25 36.5078 22.1328C36.625 22.0859 36.7305 22.0508 36.8242 22.0273C36.918 21.9805 37.0234 21.9336 37.1406 21.8867C37.3516 21.7461 37.4922 21.6523 37.5625 21.6055C37.6562 21.5586 37.75 21.5117 37.8438 21.4648C37.9141 21.418 37.9844 21.3711 38.0547 21.3242C38.125 21.2539 38.207 21.1953 38.3008 21.1484C38.3477 21.1016 38.4062 21.0664 38.4766 21.043C38.5703 21.0195 38.6406 20.9844 38.6875 20.9375C38.8047 20.8906 38.9102 20.832 39.0039 20.7617C39.0977 20.6914 39.2031 20.6211 39.3203 20.5508C39.4609 20.4805 39.5781 20.4102 39.6719 20.3398C39.7891 20.2695 39.9297 20.2109 40.0938 20.1641C40.1641 20.1406 40.2344 20.1172 40.3047 20.0938C40.375 20.0469 40.4453 20 40.5156 19.9531C40.5859 19.9297 40.6562 19.8945 40.7266 19.8477C40.7969 19.8008 40.8555 19.7656 40.9023 19.7422C41.043 19.6953 41.125 19.6602 41.1484 19.6367C41.1719 19.6133 41.207 19.5898 41.2539 19.5664C41.4883 19.4961 41.6172 19.4492 41.6406 19.4258C41.6875 19.4023 41.7344 19.3672 41.7812 19.3203C42.0625 19.1328 42.2734 19.0273 42.4141 19.0039C42.5547 18.957 42.7773 18.8398 43.082 18.6523C43.2227 18.6758 43.3516 18.6875 43.4688 18.6875C43.5859 18.6641 43.6914 18.6992 43.7852 18.793C43.6914 19.2383 43.5156 19.543 43.2578 19.707C43.0234 19.8477 42.7656 19.9766 42.4844 20.0938C42.0859 20.4453 41.7461 20.7266 41.4648 20.9375C41.1836 21.125 40.8203 21.3594 40.375 21.6406C40.0938 21.7578 39.8477 21.8867 39.6367 22.0273C39.4258 22.0273 39.2617 22.0625 39.1445 22.1328C39.0508 22.2031 38.9453 22.2734 38.8281 22.3438C38.7344 22.3906 38.6289 22.4258 38.5117 22.4492C38.418 22.4727 38.3242 22.5078 38.2305 22.5547C37.9961 22.6953 37.8438 22.7773 37.7734 22.8008C37.7266 22.8242 37.6797 22.8594 37.6328 22.9062C37.3984 23.2109 37.1758 23.4102 36.9648 23.5039C36.7539 23.5977 36.5664 23.7383 36.4023 23.9258C36.0039 24.043 35.6758 24.2305 35.418 24.4883C35.1602 24.7461 34.8555 24.957 34.5039 25.1211C34.3164 25.6602 34.1523 26.1992 34.0117 26.7383C33.8945 27.2773 33.7422 27.8047 33.5547 28.3203C33.3672 28.8594 33.168 29.3984 32.957 29.9375C32.7695 30.4766 32.6055 31.0273 32.4648 31.5898C32.207 32.0352 31.9961 32.5156 31.832 33.0312C31.668 33.5469 31.4688 34.0625 31.2344 34.5781C31.0469 34.7188 30.9062 34.918 30.8125 35.1758C30.7422 35.4336 30.6016 35.6445 30.3906 35.8086C30.2734 36.0664 30.1094 36.2773 29.8984 36.4414C29.6875 36.6289 29.4883 36.8164 29.3008 37.0039C29.2539 37.0508 29.207 37.0977 29.1602 37.1445C29.1133 37.2148 29.0664 37.2852 29.0195 37.3555C28.7383 37.6367 28.4336 37.918 28.1055 38.1992C27.7773 38.5039 27.4844 38.8203 27.2266 39.1484C26.9688 39.3125 26.7344 39.4883 26.5234 39.6758C26.3125 39.8633 26.1016 40.0625 25.8906 40.2734C25.7734 40.3203 25.6797 40.3555 25.6094 40.3789C25.5156 40.4258 25.4219 40.4141 25.3281 40.3438C25.0938 40.4141 24.8477 40.4258 24.5898 40.3789C24.332 40.332 24.2266 40.1797 24.2734 39.9219C24.1328 39.8047 24.0508 39.6992 24.0273 39.6055C24.0039 39.5352 23.9688 39.4531 23.9219 39.3594C24.0156 39.1719 24.0156 38.9961 23.9219 38.832C23.8281 38.6914 23.7812 38.5625 23.7812 38.4453C23.7812 38.1406 23.8164 37.8477 23.8867 37.5664C23.9336 37.2617 24.0156 36.9922 24.1328 36.7578C24.2266 36.5469 24.332 36.3125 24.4492 36.0547C24.5898 35.7266 24.7188 35.4102 24.8359 35.1055C24.9297 34.8242 25.0352 34.5195 25.1523 34.1914C25.3164 33.9336 25.4336 33.6523 25.5039 33.3477C25.5508 33.0664 25.6328 32.7852 25.75 32.5039C25.8438 32.3164 25.9375 32.1289 26.0312 31.9414C26.1484 31.7773 26.2188 31.6016 26.2422 31.4141C26.4297 31.0625 26.6289 30.7461 26.8398 30.4648C27.0742 30.1836 27.2734 29.8672 27.4375 29.5156C28.0469 28.6484 28.75 27.8867 29.5469 27.2305C30.3438 26.5977 31.1523 25.9766 31.9727 25.3672C32.0664 25.25 32.125 25.1797 32.1484 25.1562C32.1953 25.1094 32.2305 25.0742 32.2539 25.0508C32.2773 25.0273 32.3125 25.0039 32.3594 24.9805C32.4062 24.957 32.4883 24.8867 32.6055 24.7695C32.6523 24.7461 32.6758 24.6992 32.6758 24.6289C32.6992 24.5586 32.7461 24.4883 32.8164 24.418C33.0039 23.9023 33.2266 23.3281 33.4844 22.6953C33.7422 22.0391 33.9297 21.5 34.0469 21.0781C33.9297 21.125 33.8359 21.207 33.7656 21.3242C33.7188 21.4414 33.6602 21.5352 33.5898 21.6055C33.543 21.6758 33.4844 21.7344 33.4141 21.7812C33.3438 21.8281 33.2852 21.875 33.2383 21.9219C33.1914 21.9688 33.1328 22.0273 33.0625 22.0977C32.9922 22.1445 32.9336 22.2031 32.8867 22.2734C32.7227 22.4141 32.582 22.543 32.4648 22.6602C32.3711 22.7539 32.2773 22.8477 32.1836 22.9414C32.1133 23.0352 32.0195 23.1406 31.9023 23.2578C31.8086 23.3516 31.6797 23.4688 31.5156 23.6094C31.3281 23.8672 31.1289 24.1133 30.918 24.3477C30.7305 24.5586 30.5078 24.7344 30.25 24.875C29.8984 25.1328 29.5352 25.3438 29.1602 25.5078C28.7852 25.6719 28.4336 25.8125 28.1055 25.9297C27.9414 25.9766 27.7773 26.0234 27.6133 26.0703C27.4727 26.1406 27.3438 26.1758 27.2266 26.1758C27.1797 26.1992 27.1211 26.1992 27.0508 26.1758C26.9805 26.1758 26.9102 26.1758 26.8398 26.1758C26.4648 26.1758 26.1484 26.1289 25.8906 26.0352C25.8203 25.9883 25.7617 25.9531 25.7148 25.9297C25.668 25.8828 25.6211 25.8125 25.5742 25.7188C25.5273 25.6719 25.4688 25.6133 25.3984 25.543C25.3281 25.4492 25.2695 25.3672 25.2227 25.2969C25.1758 25.1797 25.1523 25.0625 25.1523 24.9453C25.1523 24.8047 25.1289 24.6758 25.082 24.5586C25.0352 24.3242 24.9766 24.1133 24.9062 23.9258C24.8359 23.7148 24.8242 23.5039 24.8711 23.293C24.8945 23.2227 24.918 23.1641 24.9414 23.1172C24.9648 23.0469 24.9648 22.9766 24.9414 22.9062C24.918 22.8359 24.8945 22.7656 24.8711 22.6953C24.8242 22.625 24.7891 22.5547 24.7656 22.4844C24.7188 22.4141 24.6836 22.3438 24.6602 22.2734C24.6133 22.1797 24.5898 22.0977 24.5898 22.0273C24.5664 21.9102 24.5898 21.793 24.6602 21.6758C24.707 21.5352 24.707 21.418 24.6602 21.3242C24.7305 21.1602 24.8008 20.9961 24.8711 20.832C24.918 20.668 25 20.5156 25.1172 20.375C25.2812 20.1406 25.3984 19.9531 25.4688 19.8125C25.5156 19.6484 25.5859 19.5078 25.6797 19.3906C25.7969 19.1797 25.9141 18.9922 26.0312 18.8281C26.1719 18.6641 26.3008 18.4883 26.418 18.3008C26.8633 17.5273 27.3555 16.8242 27.8945 16.1914C27.9883 16.1445 28.0703 16.1094 28.1406 16.0859C28.2109 16.0625 28.2578 16.0039 28.2812 15.9102C28.8438 15.6523 29.3594 15.3711 29.8281 15.0664C30.0859 14.9961 30.3086 14.8789 30.4961 14.7148C30.707 14.5273 30.9414 14.3867 31.1992 14.293C31.4102 14.1992 31.6328 14.082 31.8672 13.9414C32.1016 13.8008 32.3477 13.7188 32.6055 13.6953C32.8398 13.6953 33.0156 13.6602 33.1328 13.5898C33.25 13.5195 33.3672 13.4492 33.4844 13.3789C33.8359 13.1914 34.2109 13.1094 34.6094 13.1328C34.7969 13.3203 34.9844 13.4609 35.1719 13.5547C35.3828 13.6484 35.5469 13.8008 35.6641 14.0117C35.7109 14.1055 35.7344 14.2227 35.7344 14.3633C35.7578 14.5039 35.7812 14.6562 35.8047 14.8203C35.8516 14.9375 35.8867 15.0664 35.9102 15.207C35.957 15.3242 35.9922 15.4414 36.0156 15.5586C36.0391 15.8398 36.0273 16.1211 35.9805 16.4023C35.957 16.6836 35.957 16.9531 35.9805 17.2109ZM34.1172 15.7344C34.0234 15.8047 33.918 15.8398 33.8008 15.8398C33.707 15.8398 33.6133 15.8633 33.5195 15.9102C33.4727 15.957 33.4141 16.0039 33.3438 16.0508C33.2969 16.0742 33.25 16.1094 33.2031 16.1562C32.9922 16.2734 32.7578 16.3789 32.5 16.4727C32.2656 16.543 32.0547 16.6367 31.8672 16.7539C31.75 16.8477 31.6562 16.9531 31.5859 17.0703C31.5156 17.1641 31.4219 17.2461 31.3047 17.3164C31.1641 17.4102 31.0117 17.4922 30.8477 17.5625C30.707 17.6328 30.5781 17.7266 30.4609 17.8438C30.3906 17.9141 30.332 17.9844 30.2852 18.0547C30.2617 18.125 30.1914 18.1602 30.0742 18.1602C29.8164 18.6523 29.5 19.0977 29.125 19.4961C28.75 19.8945 28.4453 20.3516 28.2109 20.8672C28.0938 20.9141 28.0117 20.9961 27.9648 21.1133C27.9414 21.2305 27.8945 21.3477 27.8242 21.4648C27.5664 21.9336 27.4609 22.2969 27.5078 22.5547C27.5781 22.7891 27.625 23.0234 27.6484 23.2578C27.7891 23.4453 27.9766 23.5039 28.2109 23.4336C28.4688 23.3398 28.6914 23.2344 28.8789 23.1172C29.1133 22.9531 29.3359 22.7773 29.5469 22.5898C29.7812 22.3789 30.0156 22.168 30.25 21.957C30.4844 21.7695 30.6953 21.5703 30.8828 21.3594C31.0938 21.125 31.293 20.9023 31.4805 20.6914C31.5742 20.5742 31.668 20.4805 31.7617 20.4102C31.8555 20.3398 31.9492 20.2461 32.043 20.1289C32.1602 20.0117 32.2656 19.9062 32.3594 19.8125C32.4531 19.6953 32.5586 19.6016 32.6758 19.5312C32.8633 19.2734 33.0273 19.0273 33.168 18.793C33.332 18.5586 33.5078 18.3359 33.6953 18.125C33.8125 17.8203 33.9297 17.5391 34.0469 17.2812C34.1875 17.0234 34.3047 16.7539 34.3984 16.4727C34.3516 16.3555 34.3281 16.2266 34.3281 16.0859C34.3281 15.9219 34.2695 15.8047 34.1523 15.7344H34.1172ZM31.2695 28.4609C31.1992 28.4844 31.1289 28.5195 31.0586 28.5664C31.0117 28.6367 30.9414 28.707 30.8477 28.7773C30.6133 29.0117 30.3789 29.2461 30.1445 29.4805C29.9336 29.7383 29.7344 30.0195 29.5469 30.3242C29.3359 30.6289 29.0898 30.9219 28.8086 31.2031C28.5508 31.4844 28.375 31.8008 28.2812 32.1523C28.0234 32.5508 27.7891 32.9609 27.5781 33.3828C27.3906 33.8047 27.2383 34.2734 27.1211 34.7891C27.0742 35.0703 27.0273 35.293 26.9805 35.457C26.9336 35.6211 26.8984 35.7852 26.875 35.9492C27.0156 35.8086 27.1562 35.6562 27.2969 35.4922C27.4609 35.3516 27.6016 35.2109 27.7188 35.0703C27.7656 35.0234 27.8008 34.9648 27.8242 34.8945C27.8711 34.8242 27.918 34.7656 27.9648 34.7188C28.2461 34.3203 28.5391 33.9336 28.8438 33.5586C29.1484 33.1836 29.4297 32.7969 29.6875 32.3984C29.8047 32.2578 29.9102 32.1172 30.0039 31.9766C30.0977 31.8594 30.1914 31.7305 30.2852 31.5898C30.707 31.0039 31.0352 30.3711 31.2695 29.6914C31.5039 29.0352 31.75 28.3555 32.0078 27.6523C31.8672 27.793 31.7266 27.9102 31.5859 28.0039C31.4688 28.1211 31.3633 28.2734 31.2695 28.4609ZM49.375 24.9805C49.2344 24.6758 49.2109 24.2188 49.3047 23.6094C49.3516 23.3516 49.3867 23.1523 49.4102 23.0117C49.457 22.8477 49.5039 22.5781 49.5508 22.2031C49.5977 21.8516 49.6562 21.4883 49.7266 21.1133C49.8203 20.7383 49.8906 20.3633 49.9375 19.9883C49.5859 20.5273 49.2578 21.1016 48.9531 21.7109C48.6484 22.2969 48.2852 22.7891 47.8633 23.1875C47.793 23.3984 47.7109 23.5508 47.6172 23.6445C47.5234 23.7148 47.418 23.7852 47.3008 23.8555C47.207 23.9023 47.1016 23.9609 46.9844 24.0312C46.8906 24.1016 46.8086 24.2422 46.7383 24.4531C46.6211 24.5703 46.5039 24.6992 46.3867 24.8398C46.293 24.957 46.2227 25.1094 46.1758 25.2969C46.0586 25.3438 45.9414 25.4375 45.8242 25.5781C45.6133 25.7891 45.4727 25.9062 45.4023 25.9297C45.332 25.9531 45.2734 25.9883 45.2266 26.0352C44.9922 26.2227 44.7812 26.3633 44.5938 26.457C44.4297 26.5508 44.2305 26.6094 43.9961 26.6328C43.7383 26.6797 43.3984 26.7148 42.9766 26.7383C42.5781 26.7617 42.2617 26.7852 42.0273 26.8086C41.8633 26.6914 41.7461 26.6211 41.6758 26.5977C41.6055 26.5742 41.4766 26.5273 41.2891 26.457C40.9844 26.3398 40.8203 26.2695 40.7969 26.2461C40.7734 26.2461 40.7148 26.2227 40.6211 26.1758C40.4336 26.0352 40.3047 25.9297 40.2344 25.8594C40.1641 25.7656 40.082 25.6719 39.9883 25.5781C39.5898 24.9688 39.3672 24.1953 39.3203 23.2578C39.2969 22.9297 39.3555 22.6016 39.4961 22.2734C39.6367 21.9453 39.7656 21.6523 39.8828 21.3945C40 21.1367 40.1523 20.8672 40.3398 20.5859C40.5273 20.3047 40.6797 20.0469 40.7969 19.8125C40.8672 19.6719 40.9023 19.5664 40.9023 19.4961C40.9023 19.4023 40.8906 19.3203 40.8672 19.25C40.8438 19.1797 40.832 19.1094 40.832 19.0391C40.832 18.9688 40.8672 18.8633 40.9375 18.7227C40.9844 18.5586 41.0547 18.3945 41.1484 18.2305C41.2422 18.0664 41.3477 17.8789 41.4648 17.668C41.6992 17.2695 41.9219 16.9414 42.1328 16.6836C42.3438 16.4023 42.5195 16.0508 42.6602 15.6289C42.7773 15.3008 42.9297 15.0547 43.1172 14.8906C43.3281 14.7031 43.5742 14.5391 43.8555 14.3984C43.9727 14.4453 44.1367 14.4336 44.3477 14.3633C44.582 14.2695 44.7578 14.1758 44.875 14.082C45.0391 14.082 45.168 14.0352 45.2617 13.9414C45.5195 13.8945 45.6484 13.8945 45.6484 13.9414C45.6719 13.9883 45.707 14.0117 45.7539 14.0117C45.8008 14.0352 45.8594 14.0352 45.9297 14.0117C46.0234 13.9883 46.0938 13.9883 46.1406 14.0117C46.2109 14.2461 46.2695 14.3984 46.3164 14.4688C46.3633 14.5391 46.3867 14.5977 46.3867 14.6445C46.3867 14.7148 46.375 14.8086 46.3516 14.9258C46.3516 15.043 46.3398 15.125 46.3164 15.1719C46.1758 15.3594 46.0938 15.4766 46.0703 15.5234C46.0703 15.5469 46.0586 15.582 46.0352 15.6289C45.8945 15.8164 45.7188 16.0742 45.5078 16.4023C45.2969 16.707 45.1094 16.9766 44.9453 17.2109C44.8281 17.3984 44.7109 17.5273 44.5938 17.5977C44.4766 17.668 44.3711 17.7969 44.2773 17.9844C44.2305 18.0781 44.1953 18.1719 44.1719 18.2656C44.1484 18.3359 44.1133 18.418 44.0664 18.5117C43.8086 19.0508 43.5039 19.625 43.1523 20.2344C42.8008 20.8203 42.4844 21.3828 42.2031 21.9219C42.1797 22.1094 42.1328 22.2969 42.0625 22.4844C42.0156 22.6484 41.9922 22.8125 41.9922 22.9766C41.9922 23 41.9805 23.0703 41.957 23.1875C41.957 23.2812 41.957 23.3984 41.957 23.5391C41.957 23.6562 41.957 23.7734 41.957 23.8906C41.957 24.0078 41.9688 24.0781 41.9922 24.1016C42.1328 24.2891 42.2148 24.3828 42.2383 24.3828C42.2617 24.3594 42.2852 24.3594 42.3086 24.3828C42.4023 24.6172 42.4609 24.7578 42.4844 24.8047C42.5312 24.8281 42.6133 24.8633 42.7305 24.9102C42.8242 24.9336 42.9531 24.9219 43.1172 24.875C43.3047 24.8047 43.4453 24.7461 43.5391 24.6992C43.8203 24.5586 44.0312 24.418 44.1719 24.2773C44.3125 24.1133 44.4531 23.9492 44.5938 23.7852C44.7109 23.6445 44.875 23.4336 45.0859 23.1523C45.2969 22.8711 45.5078 22.5898 45.7188 22.3086C45.9297 22.0039 46.1406 21.7227 46.3516 21.4648C46.5625 21.1836 46.7266 20.9727 46.8438 20.832C46.9844 20.5273 47.1484 20.2461 47.3359 19.9883C47.5469 19.7305 47.7227 19.4609 47.8633 19.1797C48.0508 18.8047 48.2148 18.4883 48.3555 18.2305C48.4961 17.9727 48.6602 17.668 48.8477 17.3164C48.9883 17.1289 49.1289 16.9531 49.2695 16.7891C49.4336 16.6016 49.5508 16.3555 49.6211 16.0508C49.668 15.8867 49.75 15.7344 49.8672 15.5938C50.0078 15.4297 50.1133 15.2891 50.1836 15.1719C50.3477 15.0312 50.4531 14.9023 50.5 14.7852C50.5703 14.668 50.6523 14.5859 50.7461 14.5391C51.0039 14.4688 51.2031 14.4219 51.3438 14.3984C51.4844 14.3516 51.6602 14.3516 51.8711 14.3984C52.0586 14.2812 52.2578 14.2227 52.4688 14.2227C52.6797 14.2227 52.8789 14.2344 53.0664 14.2578C53.0664 14.375 53.0898 14.457 53.1367 14.5039C53.207 14.5273 53.2422 14.5859 53.2422 14.6797C53.3359 14.8906 53.3359 15.1484 53.2422 15.4531C53.1484 15.7578 53.0898 16.0625 53.0664 16.3672C53.0195 16.6016 52.9258 16.8242 52.7852 17.0352C52.668 17.2227 52.5742 17.4453 52.5039 17.7031C52.4102 18.0547 52.3516 18.2656 52.3281 18.3359C52.3047 18.4062 52.2695 18.5352 52.2227 18.7227C52.1289 19.1445 52.0352 19.543 51.9414 19.918C51.8477 20.2695 51.7773 20.6797 51.7305 21.1484C51.7305 21.2656 51.707 21.3945 51.6602 21.5352C51.6367 21.6523 51.625 21.7578 51.625 21.8516C51.625 21.9688 51.625 22.1094 51.625 22.2734C51.6484 22.4375 51.7188 22.543 51.8359 22.5898C51.9766 22.6367 52.082 22.625 52.1523 22.5547C52.2461 22.4844 52.375 22.4023 52.5391 22.3086C52.6562 22.2148 52.7734 22.1094 52.8906 21.9922C53.0078 21.875 53.125 21.7695 53.2422 21.6758C53.3594 21.5586 53.4883 21.4648 53.6289 21.3945C53.7695 21.3242 53.8984 21.2305 54.0156 21.1133C54.3906 20.7852 54.7422 20.4453 55.0703 20.0938C55.4219 19.7422 55.7969 19.4492 56.1953 19.2148C56.5703 18.8164 56.9453 18.4531 57.3203 18.125C57.7188 17.7734 58.1641 17.4805 58.6562 17.2461C58.8438 17.5508 58.8906 17.8086 58.7969 18.0195C58.7031 18.207 58.5859 18.3945 58.4453 18.582C58.3984 18.6289 58.3164 18.6875 58.1992 18.7578C58.082 18.8281 57.9883 18.8867 57.918 18.9336C57.8711 18.9805 57.8125 19.0391 57.7422 19.1094C57.6719 19.1797 57.6133 19.2148 57.5664 19.2148C57.5664 19.3086 57.5312 19.3906 57.4609 19.4609C57.4141 19.5078 57.3672 19.5547 57.3203 19.6016C57.0156 20.0703 56.6758 20.4922 56.3008 20.8672C55.9258 21.2188 55.5625 21.582 55.2109 21.957C55.0469 22.0039 54.9414 22.0859 54.8945 22.2031C54.8711 22.2969 54.8008 22.3906 54.6836 22.4844C54.5898 22.6016 54.4961 22.707 54.4023 22.8008C54.3086 22.8711 54.2148 22.9648 54.1211 23.082C53.9805 23.2461 53.8516 23.4102 53.7344 23.5742C53.6406 23.7148 53.5 23.8555 53.3125 23.9961C53.1953 24.1133 53.1016 24.2422 53.0312 24.3828C52.9844 24.5 52.9023 24.6172 52.7852 24.7344C52.5977 24.9219 52.457 25.0156 52.3633 25.0156C52.293 24.9922 52.2344 25.0977 52.1875 25.332C52 25.4727 51.8945 25.5781 51.8711 25.6484C51.8477 25.6953 51.8125 25.707 51.7656 25.6836C51.7188 25.707 51.6367 25.7305 51.5195 25.7539C51.4023 25.7539 51.3438 25.7773 51.3438 25.8242C51.1797 25.8945 51.0508 25.9648 50.957 26.0352C50.8867 26.1055 50.7812 26.1523 50.6406 26.1758C50.3359 26.2227 50.1133 26.1992 49.9727 26.1055C49.8555 26.0352 49.7266 25.918 49.5859 25.7539L49.375 24.9805ZM67.375 16.5078C67.3984 16.5781 67.375 16.7188 67.3047 16.9297C67.1875 17.0703 67.1172 17.2227 67.0938 17.3867C67.0469 17.4805 67 17.5625 66.9531 17.6328C66.9297 17.7031 66.9062 17.7969 66.8828 17.9141C66.8359 18.0547 66.8125 18.2188 66.8125 18.4062C66.8359 18.5938 66.8359 18.7695 66.8125 18.9336C66.7656 19.1914 66.7305 19.4492 66.707 19.707C66.6836 19.9414 66.6602 20.1875 66.6367 20.4453C66.6367 20.7031 66.6133 20.9961 66.5664 21.3242C66.5195 21.6523 66.4727 21.9453 66.4258 22.2031C66.5195 22.3672 66.5781 22.543 66.6016 22.7305C66.625 22.918 66.707 23.0703 66.8477 23.1875C67.3164 23.1172 67.6914 23.0117 67.9727 22.8711C68.2539 22.707 68.5234 22.4844 68.7812 22.2031C68.9922 22.1094 69.1328 22.0273 69.2031 21.957C69.2969 21.8867 69.4375 21.793 69.625 21.6758C69.6719 21.6289 69.7188 21.582 69.7656 21.5352C69.8125 21.4883 69.8594 21.4414 69.9062 21.3945C70.1641 21.2539 70.3164 21.1602 70.3633 21.1133C70.4336 21.0664 70.5156 21.0195 70.6094 20.9727C71.0078 20.7148 71.3125 20.4453 71.5234 20.1641C71.7344 20 71.875 19.8594 71.9453 19.7422C72.0391 19.6016 72.2266 19.4727 72.5078 19.3555C72.6719 19.168 72.8359 19.0156 73 18.8984C73.1875 18.7578 73.3633 18.5938 73.5273 18.4062C73.6445 18.4062 73.7383 18.4297 73.8086 18.4766C73.8789 18.5234 73.9609 18.5703 74.0547 18.6172C74.125 18.8047 74.1367 19.0039 74.0898 19.2148C74.043 19.4023 73.9609 19.5781 73.8438 19.7422C73.7266 19.9062 73.668 20 73.668 20.0234C73.668 20.0469 73.6562 20.0703 73.6328 20.0938C73.5625 20.1875 73.4688 20.2812 73.3516 20.375C73.2578 20.4453 73.1758 20.5273 73.1055 20.6211C72.9883 20.832 72.8945 20.9375 72.8242 20.9375C72.7539 20.9375 72.6953 20.9609 72.6484 21.0078C72.4375 21.125 72.2852 21.2188 72.1914 21.2891C72.1211 21.3594 71.9922 21.4531 71.8047 21.5703C71.5469 21.7109 71.3945 21.8047 71.3477 21.8516C71.3008 21.8984 71.2539 21.9336 71.207 21.957C70.9023 22.2852 70.6211 22.5547 70.3633 22.7656C70.1289 22.9531 69.8711 23.2109 69.5898 23.5391C69.4961 23.6094 69.4023 23.6797 69.3086 23.75C69.2148 23.8203 69.1328 23.9141 69.0625 24.0312C68.8516 24.1719 68.6758 24.3125 68.5352 24.4531C68.418 24.5938 68.2773 24.7578 68.1133 24.9453C67.9727 25.0156 67.8203 25.1211 67.6562 25.2617C67.4922 25.3789 67.3164 25.4844 67.1289 25.5781C67.0352 25.625 66.9297 25.6836 66.8125 25.7539C66.7188 25.8008 66.6133 25.8242 66.4961 25.8242C66.2148 25.8711 65.957 25.8477 65.7227 25.7539C65.4883 25.6602 65.2656 25.5898 65.0547 25.543C64.9609 25.4023 64.8438 25.2852 64.7031 25.1914C64.4922 24.9336 64.3398 24.6289 64.2461 24.2773C64.1523 23.9258 64.0586 23.5508 63.9648 23.1523C63.7773 23.2695 63.6016 23.4219 63.4375 23.6094C63.2734 23.7969 63.0625 23.9492 62.8047 24.0664C62.3359 24.5117 61.832 24.9453 61.293 25.3672C60.7773 25.7656 60.25 26.1875 59.7109 26.6328C59.6406 26.7031 59.5703 26.7617 59.5 26.8086C59.4297 26.8555 59.3711 26.8672 59.3242 26.8438C59.207 26.9844 59.043 27.0664 58.832 27.0898C58.6445 27.1367 58.4336 27.1367 58.1992 27.0898C57.9648 26.9727 57.7539 26.8906 57.5664 26.8438C57.3789 26.7969 57.1914 26.7266 57.0039 26.6328C56.6055 26.5625 56.2773 26.3867 56.0195 26.1055C55.7383 25.8242 55.5039 25.4961 55.3164 25.1211C55.2461 24.9336 55.1992 24.7578 55.1758 24.5938C55.1289 24.4297 55.082 24.2422 55.0352 24.0312C55.0117 23.8438 54.9766 23.6914 54.9297 23.5742C54.8828 23.4336 54.8828 23.3047 54.9297 23.1875C54.8828 23.1172 54.8711 23.0469 54.8945 22.9766C54.918 22.8828 54.9297 22.7891 54.9297 22.6953C54.9062 22.3672 54.9414 22.0156 55.0352 21.6406C55.1055 21.2656 55.2109 20.9258 55.3516 20.6211C55.3984 20.5273 55.4922 20.4102 55.6328 20.2695C55.6797 20.1992 55.7148 20.1289 55.7383 20.0586C55.7617 19.9883 55.7969 19.9297 55.8438 19.8828C55.8906 19.8125 55.9609 19.7422 56.0547 19.6719C56.1484 19.6016 56.2305 19.5312 56.3008 19.4609C56.418 19.2969 56.5469 19.1562 56.6875 19.0391C56.8516 18.8984 57.0039 18.7578 57.1445 18.6172C57.2148 18.5469 57.2734 18.4648 57.3203 18.3711C57.3906 18.2773 57.4844 18.207 57.6016 18.1602C57.6953 17.9961 57.8008 17.8672 57.918 17.7734C58.0352 17.6562 58.1641 17.5391 58.3047 17.4219C58.7031 16.9297 59.1953 16.5195 59.7812 16.1914C60.3672 15.8633 60.8945 15.4883 61.3633 15.0664C61.5273 14.9961 61.668 14.9141 61.7852 14.8203C61.9023 14.7266 62.0195 14.6328 62.1367 14.5391C62.4414 14.2812 62.7578 14.1992 63.0859 14.293C63.4141 14.3867 63.7188 14.4688 64 14.5391C64.2344 14.75 64.457 14.9609 64.668 15.1719C64.9023 15.3828 65.1016 15.6172 65.2656 15.875C65.4297 15.8516 65.6172 15.8516 65.8281 15.875C66.0391 15.875 66.2617 15.8516 66.4961 15.8047C66.5664 15.8047 66.6367 15.793 66.707 15.7695C66.7773 15.7227 66.8359 15.6992 66.8828 15.6992C67.2344 15.8164 67.4102 15.9922 67.4102 16.2266L67.375 16.5078ZM62.7695 16.7539C62.1367 17.0586 61.5625 17.4219 61.0469 17.8438C60.5312 18.2422 60.0391 18.6758 59.5703 19.1445C59.4531 19.2617 59.3242 19.3789 59.1836 19.4961C59.0664 19.5898 58.9609 19.6953 58.8672 19.8125C58.7734 19.9297 58.6797 20.0703 58.5859 20.2344C58.5156 20.3984 58.4453 20.5508 58.375 20.6914C58.3281 20.7852 58.2812 20.8672 58.2344 20.9375C58.1875 20.9844 58.1406 21.043 58.0938 21.1133C58.0469 21.2305 58.0234 21.3477 58.0234 21.4648C58.0469 21.582 58.0586 21.7109 58.0586 21.8516C58.0586 21.9688 58.0586 22.0859 58.0586 22.2031C58.0586 22.3203 58.0703 22.4375 58.0938 22.5547C58.1641 22.8125 58.1992 23.0703 58.1992 23.3281C58.1992 23.5156 58.2109 23.75 58.2344 24.0312C58.2812 24.2891 58.375 24.4648 58.5156 24.5586C58.6562 24.6523 58.7969 24.6758 58.9375 24.6289C59.1016 24.582 59.2422 24.5469 59.3594 24.5234C60.1797 23.8906 60.9531 23.2344 61.6797 22.5547C62.4062 21.8516 63.0508 21.0664 63.6133 20.1992C63.5664 19.5898 63.5547 19.0039 63.5781 18.4414C63.625 17.8555 63.5781 17.3164 63.4375 16.8242C63.3438 16.7773 63.2266 16.7656 63.0859 16.7891C62.9688 16.7891 62.8633 16.7773 62.7695 16.7539ZM74.0547 21.6758C74.2422 21.5586 74.3945 21.4062 74.5117 21.2188C74.6289 21.0312 74.7695 20.8438 74.9336 20.6562C75.2383 20.3047 75.5664 20.0117 75.918 19.7773C76.082 19.543 76.2812 19.3672 76.5156 19.25C76.7734 19.1094 76.9727 18.9102 77.1133 18.6523C77.1602 18.582 77.1953 18.5117 77.2188 18.4414C77.2656 18.3711 77.3125 18.3008 77.3594 18.2305C77.7812 17.6445 78.2617 17.1289 78.8008 16.6836C78.9414 16.5664 79.0703 16.4492 79.1875 16.332C79.3281 16.2148 79.4922 16.0977 79.6797 15.9805C79.8906 15.8633 80.0898 15.7109 80.2773 15.5234C80.4883 15.3359 80.7109 15.1953 80.9453 15.1016C81.1094 15.0312 81.2617 14.9844 81.4023 14.9609C81.543 14.9141 81.6953 14.8672 81.8594 14.8203C82.0234 14.7734 82.1641 14.7383 82.2812 14.7148C82.4219 14.668 82.5742 14.668 82.7383 14.7148C83.1133 14.8789 83.3945 15.1953 83.582 15.6641C83.6289 15.7812 83.6055 16.0391 83.5117 16.4375C83.4414 16.8125 83.3359 17.2344 83.1953 17.7031C83.0781 18.1484 82.9492 18.582 82.8086 19.0039C82.668 19.4258 82.5742 19.7305 82.5273 19.918C82.4805 20.1055 82.4688 20.2109 82.4922 20.2344C82.5156 20.2344 82.5273 20.2578 82.5273 20.3047C82.4805 20.4219 82.4453 20.5273 82.4219 20.6211C82.3984 20.7148 82.375 20.8203 82.3516 20.9375C82.3047 21.125 82.2695 21.3828 82.2461 21.7109C82.2227 22.0156 82.2344 22.2617 82.2812 22.4492C82.5391 22.4258 82.668 22.4023 82.668 22.3789C82.6914 22.3555 82.7266 22.3438 82.7734 22.3438C82.8438 22.3203 82.9141 22.3203 82.9844 22.3438C83.0781 22.3438 83.1602 22.332 83.2305 22.3086C83.4883 22.2383 83.7227 22.1445 83.9336 22.0273C84.1445 21.8867 84.3438 21.7227 84.5312 21.5352C84.9531 21.3477 85.3398 21.1602 85.6914 20.9727C86.0195 20.7383 86.2773 20.5742 86.4648 20.4805C86.6758 20.3633 86.9805 20.2109 87.3789 20.0234C87.5195 19.8594 87.7188 19.7188 87.9766 19.6016C88.2578 19.4609 88.4922 19.3086 88.6797 19.1445C88.7266 19.0977 88.7852 19.0391 88.8555 18.9688C88.9258 18.875 88.9961 18.8516 89.0664 18.8984C89.1836 19.0156 89.2539 19.1445 89.2773 19.2852C89.3242 19.4023 89.3359 19.4844 89.3125 19.5312C89.125 19.7188 89.0195 19.8594 88.9961 19.9531C88.9961 20.0469 88.9727 20.1172 88.9258 20.1641C88.8086 20.2812 88.6328 20.3867 88.3984 20.4805C88.1875 20.5742 88.0586 20.6562 88.0117 20.7266C87.9883 20.7734 87.9531 20.8203 87.9062 20.8672C87.8594 20.9141 87.7891 20.9727 87.6953 21.043C87.625 21.0898 87.5664 21.1367 87.5195 21.1836C87.4727 21.2539 87.4023 21.3008 87.3086 21.3242C87.2383 21.3242 87.168 21.3359 87.0977 21.3594C86.957 21.4766 86.8398 21.582 86.7461 21.6758C86.6523 21.7695 86.5469 21.875 86.4297 21.9922C86.2422 22.1797 86.125 22.3203 86.0781 22.4141C86.0312 22.4844 85.9023 22.5898 85.6914 22.7305C85.5742 22.8008 85.457 22.8711 85.3398 22.9414C85.2227 23.0117 85.1055 23.082 84.9883 23.1523C84.6602 23.3164 84.332 23.5156 84.0039 23.75C83.6758 23.9844 83.3477 24.2188 83.0195 24.4531C82.7852 24.5938 82.5391 24.7227 82.2812 24.8398C82.0469 24.9336 81.8242 25.0508 81.6133 25.1914C81.5195 25.1914 81.4492 25.1914 81.4023 25.1914C81.3789 25.168 81.3203 25.1797 81.2266 25.2266C81.1094 25.1562 80.9922 25.1562 80.875 25.2266C80.7578 25.2734 80.6406 25.2734 80.5234 25.2266C80.2891 25.0391 80.125 24.9219 80.0312 24.875C79.9609 24.8281 79.9023 24.7695 79.8555 24.6992C79.8086 24.582 79.7852 24.4531 79.7852 24.3125C79.8086 24.1719 79.7852 24.0547 79.7148 23.9609C79.7148 23.4453 79.7266 22.9531 79.75 22.4844C79.7969 22.0156 79.8789 21.5234 79.9961 21.0078C80.0195 20.8438 80.0664 20.6211 80.1367 20.3398C80.207 20.0352 80.2656 19.7422 80.3125 19.4609C80.3594 19.1797 80.3945 18.9336 80.418 18.7227C80.4414 18.5117 80.418 18.3828 80.3477 18.3359C80.0898 18.4766 79.8203 18.6875 79.5391 18.9688C79.2812 19.25 79.0352 19.4844 78.8008 19.6719C78.6133 19.8125 78.4258 19.9414 78.2383 20.0586C78.0742 20.1758 77.8984 20.3047 77.7109 20.4453C77.5469 20.5625 77.4062 20.6797 77.2891 20.7969C77.1719 20.9141 77.043 21.0547 76.9023 21.2188C76.7383 21.3828 76.5859 21.5469 76.4453 21.7109C76.3047 21.8516 76.1406 21.9922 75.9531 22.1328C75.8594 22.2266 75.7656 22.3086 75.6719 22.3789C75.6016 22.4258 75.5312 22.4844 75.4609 22.5547C75.3438 22.6719 75.2266 22.7891 75.1094 22.9062C75.0156 23 74.8867 23.082 74.7227 23.1523C74.582 23.3398 74.3945 23.5508 74.1602 23.7852C73.9492 24.0195 73.7266 24.2773 73.4922 24.5586C73.2812 24.8164 73.0703 25.0742 72.8594 25.332C72.6484 25.5898 72.4844 25.8242 72.3672 26.0352C72.0859 26.2695 71.7812 26.4688 71.4531 26.6328C71.1484 26.8203 70.7734 26.8438 70.3281 26.7031C70.0938 26.5625 69.9414 26.4453 69.8711 26.3516C69.8008 26.2578 69.7188 26.1875 69.625 26.1406C69.6484 25.8828 69.6719 25.6367 69.6953 25.4023C69.7188 25.168 69.7891 24.9219 69.9062 24.6641C69.9297 24.6172 69.9648 24.5703 70.0117 24.5234C70.0352 24.4531 70.0703 24.3828 70.1172 24.3125C70.2344 24.1016 70.3164 23.8672 70.3633 23.6094C70.3867 23.3516 70.457 23.1055 70.5742 22.8711C70.7148 22.6367 70.8086 22.4492 70.8555 22.3086C70.8789 22.1445 70.9258 22.0039 70.9961 21.8867C71.043 21.7695 71.1133 21.6641 71.207 21.5703C71.2773 21.4531 71.3359 21.3359 71.3828 21.2188C71.4297 21.1016 71.5117 20.9727 71.6289 20.832C71.7461 20.668 71.8281 20.5273 71.875 20.4102C71.9453 20.1523 72.0273 19.8945 72.1211 19.6367C72.2148 19.3789 72.3203 19.1211 72.4375 18.8633C72.4844 18.6992 72.5312 18.5469 72.5781 18.4062C72.625 18.2422 72.6836 18.0898 72.7539 17.9492C72.8711 17.6914 72.9883 17.4453 73.1055 17.2109C73.2227 16.9531 73.3398 16.6953 73.457 16.4375C73.5273 16.2969 73.5859 16.1797 73.6328 16.0859C73.7031 15.9688 73.7852 15.8516 73.8789 15.7344C73.9492 15.6172 74.0078 15.5 74.0547 15.3828C74.125 15.2656 74.1953 15.1484 74.2656 15.0312C74.3359 14.9141 74.3945 14.7852 74.4414 14.6445C74.5117 14.4805 74.6055 14.3281 74.7227 14.1875C74.8867 14 75.0156 13.8242 75.1094 13.6602C75.2031 13.4961 75.3555 13.3906 75.5664 13.3438C75.6602 13.3906 75.7539 13.3906 75.8477 13.3438C75.9648 13.2969 76.0703 13.2617 76.1641 13.2383C76.2812 13.1914 76.3867 13.168 76.4805 13.168C76.5742 13.1445 76.6562 13.1797 76.7266 13.2734C77.0312 13.4609 77.2539 13.625 77.3945 13.7656C77.5352 13.9062 77.6289 14.0352 77.6758 14.1523C77.793 14.3633 77.8047 14.5859 77.7109 14.8203C77.6172 15.0312 77.4531 15.2188 77.2188 15.3828C77.125 15.7812 76.9609 16.1562 76.7266 16.5078C76.4922 16.8594 76.2812 17.1992 76.0938 17.5273C76.0469 17.6445 76 17.7617 75.9531 17.8789C75.9062 17.9961 75.8594 18.1133 75.8125 18.2305C75.6719 18.5586 75.5195 18.8867 75.3555 19.2148C75.2148 19.543 75.0508 19.8594 74.8633 20.1641C74.7695 20.3516 74.6875 20.5039 74.6172 20.6211C74.5469 20.7383 74.4766 20.8438 74.4062 20.9375C74.3359 21.0078 74.2773 21.1016 74.2305 21.2188C74.1836 21.3359 74.125 21.4883 74.0547 21.6758ZM90.6836 17.4922C90.8477 17.4219 91.0234 17.3281 91.2109 17.2109C91.3984 17.0703 91.5625 16.9414 91.7031 16.8242C91.9844 16.6133 92.2422 16.4023 92.4766 16.1914C92.7109 15.9805 92.9688 15.7695 93.25 15.5586C93.4141 15.4414 93.5547 15.3359 93.6719 15.2422C93.8125 15.125 93.9414 15.0195 94.0586 14.9258C94.1758 14.8555 94.2812 14.7852 94.375 14.7148C94.4922 14.6445 94.6094 14.5742 94.7266 14.5039C95.0547 14.3633 95.3359 14.2461 95.5703 14.1523C95.6406 14.1289 95.7109 14.0938 95.7812 14.0469C95.875 13.9766 95.9688 13.9414 96.0625 13.9414C96.25 13.918 96.4141 13.9648 96.5547 14.082C96.6953 14.1758 96.8242 14.2461 96.9414 14.293C97.1523 14.4102 97.3516 14.5156 97.5391 14.6094C97.75 14.7031 97.9375 14.832 98.1016 14.9961C98.2188 15.207 98.3477 15.4062 98.4883 15.5938C98.6523 15.7812 98.7812 16.0156 98.875 16.2969C98.8984 16.3672 98.9102 16.4609 98.9102 16.5781C98.9102 16.6953 98.9102 16.8125 98.9102 16.9297C98.9336 17.0938 98.9688 17.2578 99.0156 17.4219C99.0859 17.5859 99.1328 17.75 99.1562 17.9141C99.2031 18.0781 99.2148 18.2539 99.1914 18.4414C99.1914 18.6055 99.1328 18.7695 99.0156 18.9336C98.3359 19.332 97.6211 19.6719 96.8711 19.9531C96.6836 20.0938 96.4844 20.2227 96.2734 20.3398C96.0859 20.4336 95.8984 20.5391 95.7109 20.6562C95.5234 20.9141 95.2891 21.125 95.0078 21.2891C94.75 21.4531 94.5273 21.6406 94.3398 21.8516C94.4336 22.1562 94.5508 22.4141 94.6914 22.625C94.832 22.8359 94.9961 23.0352 95.1836 23.2227C95.2539 23.3398 95.3359 23.4453 95.4297 23.5391C95.5469 23.6094 95.6641 23.668 95.7812 23.7148C95.8984 23.7617 96.0859 23.8086 96.3438 23.8555C96.6016 23.8789 96.7891 23.8789 96.9062 23.8555C97.0469 23.8086 97.2109 23.7617 97.3984 23.7148C97.5859 23.6445 97.7617 23.5742 97.9258 23.5039C98.2539 23.4805 98.4883 23.375 98.6289 23.1875C98.793 22.9766 98.9688 22.8008 99.1562 22.6602C99.2734 22.5664 99.3906 22.4961 99.5078 22.4492C99.625 22.3789 99.7422 22.2734 99.8594 22.1328C99.9297 21.9453 100.035 21.793 100.176 21.6758C100.48 21.3711 100.762 21.1602 101.02 21.043C101.184 20.8086 101.395 20.668 101.652 20.6211C101.91 20.5742 102.133 20.4805 102.32 20.3398L102.812 19.9883C102.977 19.8711 103.129 19.7539 103.27 19.6367C103.41 19.5195 103.562 19.4023 103.727 19.2852C103.867 19.1914 103.996 19.1211 104.113 19.0742C104.254 19.0039 104.359 18.9102 104.43 18.793C104.523 18.7461 104.605 18.7109 104.676 18.6875C104.746 18.6641 104.816 18.6406 104.887 18.6172C105.004 18.7812 105.074 18.8984 105.098 18.9688C105.145 19.0156 105.168 19.0742 105.168 19.1445C105.145 19.2617 105.098 19.3438 105.027 19.3906C104.957 19.4141 104.91 19.4844 104.887 19.6016C104.629 19.7656 104.359 19.9414 104.078 20.1289C103.82 20.293 103.574 20.4805 103.34 20.6914C103.316 20.8086 103.281 20.9023 103.234 20.9727C103.211 21.0195 103.176 21.0898 103.129 21.1836C102.801 21.418 102.496 21.6758 102.215 21.957C101.934 22.2383 101.629 22.5078 101.301 22.7656C101.184 22.8359 101.066 22.918 100.949 23.0117C100.855 23.1055 100.738 23.1875 100.598 23.2578C100.246 23.5859 99.8945 23.9141 99.543 24.2422C99.1914 24.5469 98.8164 24.8281 98.418 25.0859C98.3008 25.1562 98.1836 25.2383 98.0664 25.332C97.9492 25.4023 97.8086 25.4609 97.6445 25.5078C97.5039 25.625 97.3516 25.6953 97.1875 25.7188C97.0469 25.7422 96.9062 25.7891 96.7656 25.8594C96.4844 25.9766 96.2383 26.0938 96.0273 26.2109C95.8398 26.3516 95.6055 26.4453 95.3242 26.4922C95.1836 26.5391 95.043 26.5391 94.9023 26.4922C94.7852 26.4453 94.6328 26.4336 94.4453 26.457C94.2812 26.3633 94.1172 26.3047 93.9531 26.2812C93.9297 26.2109 93.8359 26.0703 93.6719 25.8594C93.5312 25.625 93.4375 25.4844 93.3906 25.4375C93.2969 25.1328 93.2031 24.9219 93.1094 24.8047C93.0156 24.6641 92.9219 24.5234 92.8281 24.3828C92.7109 24.1953 92.6289 23.9961 92.582 23.7852C92.5586 23.5508 92.4883 23.3398 92.3711 23.1523C92.3945 23.0352 92.3711 22.9531 92.3008 22.9062C92.2539 22.8359 92.2422 22.7539 92.2656 22.6602C91.9844 22.4492 91.8086 22.3086 91.7383 22.2383C91.6914 22.1445 91.6445 22.0508 91.5977 21.957C91.5977 21.6992 91.5977 21.5469 91.5977 21.5C91.5977 21.4531 91.6211 21.4062 91.668 21.3594C91.8086 21.2188 91.9609 21.1016 92.125 21.0078C92.3125 20.8906 92.4648 20.7617 92.582 20.6211C92.6992 20.5977 92.793 20.5508 92.8633 20.4805C92.957 20.4102 93.0508 20.3398 93.1445 20.2695C93.4258 20.082 93.6953 19.9062 93.9531 19.7422C94.2109 19.5547 94.5039 19.3672 94.832 19.1797C95.0664 19.0625 95.207 18.8633 95.2539 18.582C95.3242 18.3008 95.3828 18.0312 95.4297 17.7734C95.2891 17.5391 95.1836 17.4219 95.1133 17.4219C95.0664 17.4219 95.0195 17.3984 94.9727 17.3516C94.9023 17.3047 94.8438 17.2461 94.7969 17.1758C94.75 17.082 94.6797 17.0352 94.5859 17.0352C94.5156 17.0586 94.4219 17.1055 94.3047 17.1758C94.1875 17.2461 94.0938 17.3047 94.0234 17.3516C93.625 17.5859 93.2266 17.7969 92.8281 17.9844C92.4297 18.1484 92.043 18.3477 91.668 18.582C91.4805 18.6758 91.2812 18.7695 91.0703 18.8633C90.8828 18.957 90.7305 19.0391 90.6133 19.1094C90.5664 19.1328 90.5078 19.1797 90.4375 19.25C90.3906 19.2969 90.3438 19.3438 90.2969 19.3906C90.1094 19.7891 89.957 20.082 89.8398 20.2695C89.7461 20.4336 89.6523 20.6211 89.5586 20.832C89.5352 20.9023 89.5 20.9727 89.4531 21.043C89.4297 21.0898 89.3945 21.1367 89.3477 21.1836C89.2305 21.3711 89.1367 21.5586 89.0664 21.7461C88.9961 21.9336 88.8906 22.1094 88.75 22.2734C88.7031 22.5547 88.6094 22.8594 88.4688 23.1875C88.3516 23.4922 88.2461 23.7969 88.1523 24.1016C88.082 24.3828 87.9883 24.6406 87.8711 24.875C87.7773 25.1094 87.5898 25.2617 87.3086 25.332C87.1914 25.5195 87.1211 25.6602 87.0977 25.7539C87.0977 25.8477 87.0391 25.9883 86.9219 26.1758C86.8281 26.2227 86.7344 26.2461 86.6406 26.2461C86.5703 26.2695 86.4766 26.3164 86.3594 26.3867C86.3359 26.3867 86.2773 26.4219 86.1836 26.4922C86.0898 26.5625 85.9961 26.6328 85.9023 26.7031C85.7852 26.7734 85.6797 26.8438 85.5859 26.9141C85.4922 26.9844 85.4336 27.0195 85.4102 27.0195C85.2227 27.0664 85.1055 27.0547 85.0586 26.9844C84.9883 26.9375 84.9062 26.9375 84.8125 26.9844C84.6719 26.7031 84.5547 26.5273 84.4609 26.457C84.5078 26.2695 84.5547 26.1055 84.6016 25.9648C84.625 25.8008 84.6836 25.6602 84.7773 25.543C84.8477 25.4492 84.9297 25.3438 85.0234 25.2266C85.1172 25.0859 85.1992 24.957 85.2695 24.8398C85.3164 24.7461 85.3398 24.6641 85.3398 24.5938C85.3164 24.5 85.3281 24.4062 85.375 24.3125C85.4219 24.1953 85.4922 24.0781 85.5859 23.9609C85.6562 23.8203 85.7266 23.6914 85.7969 23.5742C85.8906 23.3398 85.9961 23.1172 86.1133 22.9062C86.207 22.6953 86.3008 22.4609 86.3945 22.2031C86.4648 21.9453 86.5234 21.6992 86.5703 21.4648C86.6172 21.207 86.6992 20.9492 86.8164 20.6914C86.9336 20.4336 87.0508 20.1641 87.168 19.8828C87.2852 19.5781 87.3672 19.2969 87.4141 19.0391C87.4375 18.9219 87.4727 18.8281 87.5195 18.7578C87.5664 18.6875 87.6133 18.5938 87.6602 18.4766C87.707 18.3594 87.7539 18.2305 87.8008 18.0898C87.8711 17.9258 87.9414 17.7734 88.0117 17.6328C88.1289 17.4922 88.1875 17.3867 88.1875 17.3164C88.2109 17.2461 88.2461 17.1875 88.293 17.1406C88.3398 17.0703 88.3633 17.0117 88.3633 16.9648C88.3867 16.8945 88.4219 16.8359 88.4688 16.7891C88.5156 16.6719 88.5742 16.5547 88.6445 16.4375C88.7148 16.3203 88.7734 16.2031 88.8203 16.0859C88.8906 15.9922 88.9492 15.8398 88.9961 15.6289C89.043 15.582 89.0781 15.5234 89.1016 15.4531C89.1484 15.3828 89.1719 15.3242 89.1719 15.2773C89.2422 15.0195 89.2891 14.7734 89.3125 14.5391C89.3594 14.3047 89.4531 14.0586 89.5938 13.8008C89.6875 13.4727 89.7461 13.2383 89.7695 13.0977C89.8164 12.9336 89.9219 12.7344 90.0859 12.5C90.1562 12.3125 90.2383 12.125 90.332 11.9375C90.4258 11.7266 90.5078 11.5273 90.5781 11.3398C90.6484 11.1523 90.7188 10.9766 90.7891 10.8125C90.8594 10.625 90.918 10.4258 90.9648 10.2148C91.1289 9.88672 91.2578 9.62891 91.3516 9.44141C91.4453 9.23047 91.5508 9.01953 91.668 8.80859C91.8555 8.43359 91.9844 8.15234 92.0547 7.96484C92.1484 7.75391 92.2539 7.56641 92.3711 7.40234C92.4414 7.21484 92.4883 7.05078 92.5117 6.91016C92.5586 6.74609 92.6172 6.59375 92.6875 6.45312C92.8984 6.17188 93.0273 5.94922 93.0742 5.78516C93.1211 5.62109 93.1797 5.46875 93.25 5.32812C93.4844 4.78906 93.7539 4.23828 94.0586 3.67578C94.3633 3.11328 94.7266 2.62109 95.1484 2.19922C95.2656 2.08203 95.3828 1.96484 95.5 1.84766C95.6406 1.73047 95.7578 1.58984 95.8516 1.42578C96.0391 1.23828 96.2266 1.08594 96.4141 0.96875C96.6016 0.828125 96.7773 0.675781 96.9414 0.511719C97.2461 0.582031 97.4219 0.640625 97.4688 0.6875C97.5391 0.710937 97.5977 0.722656 97.6445 0.722656C97.7617 0.886719 97.8438 1.12109 97.8906 1.42578C97.9609 1.70703 97.9844 1.97656 97.9609 2.23438C97.9609 2.39844 97.9258 2.5625 97.8555 2.72656C97.7852 2.89062 97.75 3.05469 97.75 3.21875C97.7266 3.3125 97.7148 3.39453 97.7148 3.46484C97.7383 3.53516 97.7148 3.59375 97.6445 3.64062C97.5977 3.89844 97.5273 4.14453 97.4336 4.37891C97.3398 4.58984 97.2461 4.80078 97.1523 5.01172C96.8008 5.85547 96.4258 6.57031 96.0273 7.15625C95.6523 7.74219 95.2891 8.39844 94.9375 9.125C94.7734 9.38281 94.6211 9.64062 94.4805 9.89844C94.3633 10.1328 94.2461 10.4141 94.1289 10.7422C93.9883 11.0234 93.8359 11.3047 93.6719 11.5859C93.5078 11.8672 93.3086 12.125 93.0742 12.3594C92.9336 12.6172 92.8047 12.875 92.6875 13.1328C92.5938 13.3672 92.4531 13.6016 92.2656 13.8359C92.2188 14 92.1602 14.1523 92.0898 14.293C92.0195 14.4102 91.9258 14.5391 91.8086 14.6797C91.7148 14.8672 91.6211 15.0312 91.5273 15.1719C91.457 15.3125 91.3984 15.4883 91.3516 15.6992C91.2344 16.0039 91.1055 16.3203 90.9648 16.6484C90.8477 16.9531 90.7539 17.2344 90.6836 17.4922ZM111.109 24.9805C110.969 24.6758 110.945 24.2188 111.039 23.6094C111.086 23.3516 111.121 23.1523 111.145 23.0117C111.191 22.8477 111.238 22.5781 111.285 22.2031C111.332 21.8516 111.391 21.4883 111.461 21.1133C111.555 20.7383 111.625 20.3633 111.672 19.9883C111.32 20.5273 110.992 21.1016 110.688 21.7109C110.383 22.2969 110.02 22.7891 109.598 23.1875C109.527 23.3984 109.445 23.5508 109.352 23.6445C109.258 23.7148 109.152 23.7852 109.035 23.8555C108.941 23.9023 108.836 23.9609 108.719 24.0312C108.625 24.1016 108.543 24.2422 108.473 24.4531C108.355 24.5703 108.238 24.6992 108.121 24.8398C108.027 24.957 107.957 25.1094 107.91 25.2969C107.793 25.3438 107.676 25.4375 107.559 25.5781C107.348 25.7891 107.207 25.9062 107.137 25.9297C107.066 25.9531 107.008 25.9883 106.961 26.0352C106.727 26.2227 106.516 26.3633 106.328 26.457C106.164 26.5508 105.965 26.6094 105.73 26.6328C105.473 26.6797 105.133 26.7148 104.711 26.7383C104.312 26.7617 103.996 26.7852 103.762 26.8086C103.598 26.6914 103.48 26.6211 103.41 26.5977C103.34 26.5742 103.211 26.5273 103.023 26.457C102.719 26.3398 102.555 26.2695 102.531 26.2461C102.508 26.2461 102.449 26.2227 102.355 26.1758C102.168 26.0352 102.039 25.9297 101.969 25.8594C101.898 25.7656 101.816 25.6719 101.723 25.5781C101.324 24.9688 101.102 24.1953 101.055 23.2578C101.031 22.9297 101.09 22.6016 101.23 22.2734C101.371 21.9453 101.5 21.6523 101.617 21.3945C101.734 21.1367 101.887 20.8672 102.074 20.5859C102.262 20.3047 102.414 20.0469 102.531 19.8125C102.602 19.6719 102.637 19.5664 102.637 19.4961C102.637 19.4023 102.625 19.3203 102.602 19.25C102.578 19.1797 102.566 19.1094 102.566 19.0391C102.566 18.9688 102.602 18.8633 102.672 18.7227C102.719 18.5586 102.789 18.3945 102.883 18.2305C102.977 18.0664 103.082 17.8789 103.199 17.668C103.434 17.2695 103.656 16.9414 103.867 16.6836C104.078 16.4023 104.254 16.0508 104.395 15.6289C104.512 15.3008 104.664 15.0547 104.852 14.8906C105.062 14.7031 105.309 14.5391 105.59 14.3984C105.707 14.4453 105.871 14.4336 106.082 14.3633C106.316 14.2695 106.492 14.1758 106.609 14.082C106.773 14.082 106.902 14.0352 106.996 13.9414C107.254 13.8945 107.383 13.8945 107.383 13.9414C107.406 13.9883 107.441 14.0117 107.488 14.0117C107.535 14.0352 107.594 14.0352 107.664 14.0117C107.758 13.9883 107.828 13.9883 107.875 14.0117C107.945 14.2461 108.004 14.3984 108.051 14.4688C108.098 14.5391 108.121 14.5977 108.121 14.6445C108.121 14.7148 108.109 14.8086 108.086 14.9258C108.086 15.043 108.074 15.125 108.051 15.1719C107.91 15.3594 107.828 15.4766 107.805 15.5234C107.805 15.5469 107.793 15.582 107.77 15.6289C107.629 15.8164 107.453 16.0742 107.242 16.4023C107.031 16.707 106.844 16.9766 106.68 17.2109C106.562 17.3984 106.445 17.5273 106.328 17.5977C106.211 17.668 106.105 17.7969 106.012 17.9844C105.965 18.0781 105.93 18.1719 105.906 18.2656C105.883 18.3359 105.848 18.418 105.801 18.5117C105.543 19.0508 105.238 19.625 104.887 20.2344C104.535 20.8203 104.219 21.3828 103.938 21.9219C103.914 22.1094 103.867 22.2969 103.797 22.4844C103.75 22.6484 103.727 22.8125 103.727 22.9766C103.727 23 103.715 23.0703 103.691 23.1875C103.691 23.2812 103.691 23.3984 103.691 23.5391C103.691 23.6562 103.691 23.7734 103.691 23.8906C103.691 24.0078 103.703 24.0781 103.727 24.1016C103.867 24.2891 103.949 24.3828 103.973 24.3828C103.996 24.3594 104.02 24.3594 104.043 24.3828C104.137 24.6172 104.195 24.7578 104.219 24.8047C104.266 24.8281 104.348 24.8633 104.465 24.9102C104.559 24.9336 104.688 24.9219 104.852 24.875C105.039 24.8047 105.18 24.7461 105.273 24.6992C105.555 24.5586 105.766 24.418 105.906 24.2773C106.047 24.1133 106.188 23.9492 106.328 23.7852C106.445 23.6445 106.609 23.4336 106.82 23.1523C107.031 22.8711 107.242 22.5898 107.453 22.3086C107.664 22.0039 107.875 21.7227 108.086 21.4648C108.297 21.1836 108.461 20.9727 108.578 20.832C108.719 20.5273 108.883 20.2461 109.07 19.9883C109.281 19.7305 109.457 19.4609 109.598 19.1797C109.785 18.8047 109.949 18.4883 110.09 18.2305C110.23 17.9727 110.395 17.668 110.582 17.3164C110.723 17.1289 110.863 16.9531 111.004 16.7891C111.168 16.6016 111.285 16.3555 111.355 16.0508C111.402 15.8867 111.484 15.7344 111.602 15.5938C111.742 15.4297 111.848 15.2891 111.918 15.1719C112.082 15.0312 112.188 14.9023 112.234 14.7852C112.305 14.668 112.387 14.5859 112.48 14.5391C112.738 14.4688 112.938 14.4219 113.078 14.3984C113.219 14.3516 113.395 14.3516 113.605 14.3984C113.793 14.2812 113.992 14.2227 114.203 14.2227C114.414 14.2227 114.613 14.2344 114.801 14.2578C114.801 14.375 114.824 14.457 114.871 14.5039C114.941 14.5273 114.977 14.5859 114.977 14.6797C115.07 14.8906 115.07 15.1484 114.977 15.4531C114.883 15.7578 114.824 16.0625 114.801 16.3672C114.754 16.6016 114.66 16.8242 114.52 17.0352C114.402 17.2227 114.309 17.4453 114.238 17.7031C114.145 18.0547 114.086 18.2656 114.062 18.3359C114.039 18.4062 114.004 18.5352 113.957 18.7227C113.863 19.1445 113.77 19.543 113.676 19.918C113.582 20.2695 113.512 20.6797 113.465 21.1484C113.465 21.2656 113.441 21.3945 113.395 21.5352C113.371 21.6523 113.359 21.7578 113.359 21.8516C113.359 21.9688 113.359 22.1094 113.359 22.2734C113.383 22.4375 113.453 22.543 113.57 22.5898C113.711 22.6367 113.816 22.625 113.887 22.5547C113.98 22.4844 114.109 22.4023 114.273 22.3086C114.391 22.2148 114.508 22.1094 114.625 21.9922C114.742 21.875 114.859 21.7695 114.977 21.6758C115.094 21.5586 115.223 21.4648 115.363 21.3945C115.504 21.3242 115.633 21.2305 115.75 21.1133C116.125 20.7852 116.477 20.4453 116.805 20.0938C117.156 19.7422 117.531 19.4492 117.93 19.2148C118.305 18.8164 118.68 18.4531 119.055 18.125C119.453 17.7734 119.898 17.4805 120.391 17.2461C120.578 17.5508 120.625 17.8086 120.531 18.0195C120.438 18.207 120.32 18.3945 120.18 18.582C120.133 18.6289 120.051 18.6875 119.934 18.7578C119.816 18.8281 119.723 18.8867 119.652 18.9336C119.605 18.9805 119.547 19.0391 119.477 19.1094C119.406 19.1797 119.348 19.2148 119.301 19.2148C119.301 19.3086 119.266 19.3906 119.195 19.4609C119.148 19.5078 119.102 19.5547 119.055 19.6016C118.75 20.0703 118.41 20.4922 118.035 20.8672C117.66 21.2188 117.297 21.582 116.945 21.957C116.781 22.0039 116.676 22.0859 116.629 22.2031C116.605 22.2969 116.535 22.3906 116.418 22.4844C116.324 22.6016 116.23 22.707 116.137 22.8008C116.043 22.8711 115.949 22.9648 115.855 23.082C115.715 23.2461 115.586 23.4102 115.469 23.5742C115.375 23.7148 115.234 23.8555 115.047 23.9961C114.93 24.1133 114.836 24.2422 114.766 24.3828C114.719 24.5 114.637 24.6172 114.52 24.7344C114.332 24.9219 114.191 25.0156 114.098 25.0156C114.027 24.9922 113.969 25.0977 113.922 25.332C113.734 25.4727 113.629 25.5781 113.605 25.6484C113.582 25.6953 113.547 25.707 113.5 25.6836C113.453 25.707 113.371 25.7305 113.254 25.7539C113.137 25.7539 113.078 25.7773 113.078 25.8242C112.914 25.8945 112.785 25.9648 112.691 26.0352C112.621 26.1055 112.516 26.1523 112.375 26.1758C112.07 26.2227 111.848 26.1992 111.707 26.1055C111.59 26.0352 111.461 25.918 111.32 25.7539L111.109 24.9805Z" fill="white"/>
</svg>
